<svg id="Pinnacle_Crowe_2017" data-name="Pinnacle Crowe 2017" xmlns="http://www.w3.org/2000/svg" viewBox="0 0 79.72 22.5"><defs><style>.cls-1{fill:#f5a81c;}.cls-2{fill:#fff;}</style></defs><title>Crowe_Logo_2c_w</title><path class="cls-1" d="M26.32,14.83a.19.19,0,0,0-.15-.11c-.06,0-.12,0-.16.11L12.78,37.09c0,.08-.06.12,0,.13l.1-.1L25.9,21.32c.06-.07.09-.1.1-.09s0,0-.05.12L16.89,37.09c0,.08-.06.12-.05.13s0,0,.1-.1L27.65,24.18c.06-.07.09-.1.1-.09s0,0,0,.12l-7,12.88c0,.08-.06.12-.05.12s.05,0,.1-.09L29.26,26.8a.25.25,0,0,1,.4,0L38,37.12c.06.07.09.1.1.09s0-.05,0-.12L26.32,14.83" transform="translate(-12.73 -14.72)"/><path class="cls-2" d="M53.51,21.7a6.33,6.33,0,0,0-3.6-1.2c-3.4,0-5.4,2.44-5.4,5.66,0,3.48,2.4,5.82,5.4,5.82a6.14,6.14,0,0,0,3.48-1l.75,1.14a8.24,8.24,0,0,1-4.33,1.25c-4.91,0-7.4-3.36-7.4-7.15,0-3.46,2.71-7.07,7.64-7.07a6.74,6.74,0,0,1,4.24,1.39l-.78,1.18" transform="translate(-12.73 -14.72)"/><path class="cls-2" d="M56.81,24.51l.7-.74A2.45,2.45,0,0,1,59,23.06a2.42,2.42,0,0,1,1.63,1l-.81,1.14a3,3,0,0,0-1.31-.41c-.91,0-1.65.9-1.65,3.08v5.29H55.08V23.29h1.73v1.22" transform="translate(-12.73 -14.72)"/><path class="cls-2" d="M60,28.09a4.85,4.85,0,1,1,9.69,0c0,3-2,5.26-4.86,5.26S60,31.13,60,28.09m1.91,0c0,1.84.62,4,2.92,4s3-2.17,3-4-.73-3.77-3-3.77-2.92,2-2.92,3.77" transform="translate(-12.73 -14.72)"/><path class="cls-2" d="M77.48,23.29c1,2.34,1.92,4.7,2.86,7.51h0c.77-2.89,1.57-5.29,2.36-7.7l1.63.27-3.46,9.75H79.68c-1-2.44-2-4.87-3-7.66h0c-.94,2.79-1.91,5.22-2.87,7.66H72.66l-3.4-9.59L71,23.1c.81,2.41,1.63,4.81,2.42,7.7h0c.94-2.81,1.9-5.17,2.87-7.51h1.16" transform="translate(-12.73 -14.72)"/><path class="cls-2" d="M85.8,28.32a3.57,3.57,0,0,0,3.32,3.78,4.94,4.94,0,0,0,2.7-.85l.51,1a5.88,5.88,0,0,1-3.26,1.14C86,33.35,84,31.47,84,28a4.61,4.61,0,0,1,4.65-5c3,0,4,2.69,3.8,5.26H85.8m5-1.18c0-1.53-.65-2.82-2.21-2.82a2.72,2.72,0,0,0-2.69,2.82Z" transform="translate(-12.73 -14.72)"/></svg>